<svg preserveAspectRatio="none" overflow="visible" style="display: block;" width="66" height="52" viewBox="0 0 66 52" fill="none" xmlns="http://www.w3.org/2000/svg">
<g id="Dot matrix">
<circle id="Dot" cx="3.5" cy="3.5" r="3.5" fill="#DCE7F5"/>
<circle id="Dot_2" cx="15.5" cy="3.5" r="3.5" fill="#DCE7F5"/>
<circle id="Dot_3" cx="27.5" cy="3.5" r="3.5" fill="#DCE7F5"/>
<circle id="Dot_4" cx="39.5" cy="3.5" r="3.5" fill="#DCE7F5"/>
<circle id="Dot_5" cx="51.5" cy="3.5" r="3.5" fill="#DCE7F5"/>
<circle id="Dot_6" cx="3.5" cy="15.5" r="3.5" fill="#DCE7F5"/>
<circle id="Dot_7" cx="15.5" cy="15.5" r="3.5" fill="#DCE7F5"/>
<circle id="Dot_8" cx="27.5" cy="15.5" r="3.5" fill="#DCE7F5"/>
<circle id="Dot_9" cx="39.5" cy="15.5" r="3.5" fill="#74AAFC"/>
<circle id="Dot_10" cx="51.5" cy="15.5" r="3.5" fill="#74AAFC"/>
<circle id="Dot_11" cx="3.5" cy="27.5" r="3.5" fill="#74AAFC"/>
<circle id="Dot_12" cx="15.5" cy="27.5" r="3.5" fill="#74AAFC"/>
<circle id="Dot_13" cx="27.5" cy="27.5" r="3.5" fill="#74AAFC"/>
<circle id="Dot_14" cx="39.5" cy="27.5" r="3.5" fill="#74AAFC"/>
<circle id="Dot_15" cx="51.5" cy="27.5" r="3.5" fill="#74AAFC"/>
<circle id="Dot_16" cx="3.5" cy="39.5" r="3.5" fill="#74AAFC"/>
<circle id="Dot_17" cx="15.5" cy="39.5" r="3.5" fill="#74AAFC"/>
<circle id="Dot_18" cx="27.5" cy="39.5" r="3.5" fill="#74AAFC"/>
<circle id="Dot_19" cx="39.5" cy="39.5" r="3.5" fill="#74AAFC"/>
<circle id="Dot_20" cx="51.5" cy="39.5" r="3.5" fill="#74AAFC"/>
</g>
</svg>
