<svg preserveAspectRatio="none" overflow="visible" style="display: block;" width="34" height="34" viewBox="0 0 34 34" fill="none" xmlns="http://www.w3.org/2000/svg">
<g id="users-round">
<path id="Vector" d="M25.5009 29.75C25.5009 26.7442 24.3068 23.8615 22.1811 21.7361C20.0555 19.6107 17.1726 18.4167 14.1666 18.4167M14.1666 18.4167C11.1605 18.4167 8.27756 19.6107 6.15195 21.7361C4.02635 23.8615 2.8322 26.7442 2.8322 29.75M14.1666 18.4167C18.0789 18.4167 21.2505 15.2454 21.2505 11.3333C21.2505 7.42132 18.0789 4.25 14.1666 4.25C10.2542 4.25 7.08258 7.42132 7.08258 11.3333C7.08258 15.2454 10.2542 18.4167 14.1666 18.4167ZM31.1678 28.3336C31.1678 23.5594 28.3342 19.1253 25.5006 17.0003C26.4321 16.3015 27.1769 15.384 27.6691 14.3288C28.1614 13.2737 28.3859 12.1134 28.3229 10.9508C28.2599 9.78821 27.9112 8.65907 27.3077 7.66331C26.7042 6.66755 25.8646 5.8359 24.8631 5.24194" stroke="white" stroke-width="1.5" stroke-linecap="round"/>
</g>
</svg>
